HIERARCHY
ROOT Hips
{
	OFFSET	0.000000	0.000000	0.000000
	CHANNELS 6 Xposition Yposition Zposition Zrotation Xrotation Yrotation
	JOINT LeftUpLeg
	{
		OFFSET	12.811937	-7.635976	0.557276
		CHANNELS 3 Zrotation Xrotation Yrotation
		JOINT LeftLeg
		{
			OFFSET	-0.429270	-42.206159	-1.204951
			CHANNELS 3 Zrotation Xrotation Yrotation
			JOINT LeftFoot
			{
				OFFSET	-2.112259	-42.464481	-3.973220
				CHANNELS 3 Zrotation Xrotation Yrotation
				JOINT LeftFootHeel
				{
					OFFSET	0.387196	-5.329707	-3.419729
					CHANNELS 3 Zrotation Xrotation Yrotation
					End Site
					{
						OFFSET	0.327567	-0.000003	16.505428
					}
				}
			}
		}
	}
	JOINT RightUpLeg
	{
		OFFSET	-12.811937	-7.635976	0.557276
		CHANNELS 3 Zrotation Xrotation Yrotation
		JOINT RightLeg
		{
			OFFSET	0.429270	-42.206159	-1.204951
			CHANNELS 3 Zrotation Xrotation Yrotation
			JOINT RightFoot
			{
				OFFSET	2.112259	-42.464481	-3.973220
				CHANNELS 3 Zrotation Xrotation Yrotation
				JOINT RightFootHeel
				{
					OFFSET	-0.387198	-5.329707	-3.419729
					CHANNELS 3 Zrotation Xrotation Yrotation
					End Site
					{
						OFFSET	-0.327566	-0.000003	16.505428
					}
				}
			}
		}
	}
	JOINT Spine
	{
		OFFSET	0.000000	13.731315	-1.007646
		CHANNELS 3 Zrotation Xrotation Yrotation
		JOINT Spine1
		{
			OFFSET	0.000000	12.091746	-0.604589
			CHANNELS 3 Zrotation Xrotation Yrotation
			JOINT LeftShoulder
			{
				OFFSET	5.746115	20.990027	-0.833816
				CHANNELS 3 Zrotation Xrotation Yrotation
				JOINT LeftArm
				{
					OFFSET	10.881538	-1.359258	0.219250
					CHANNELS 3 Zrotation Xrotation Yrotation
					JOINT LeftForeArm
					{
						OFFSET	4.390314	-31.537147	0.202818
						CHANNELS 3 Zrotation Xrotation Yrotation
						JOINT LeftHand
						{
							OFFSET	3.168650	-24.865023	5.373370
							CHANNELS 3 Zrotation Xrotation Yrotation
							End Site
							{
								OFFSET	1.457528	-10.806075	2.170267
							}
						}
					}
				}
			}
			JOINT RightShoulder
			{
				OFFSET	-5.746115	20.990027	-0.833816
				CHANNELS 3 Zrotation Xrotation Yrotation
				JOINT RightArm
				{
					OFFSET	-10.881538	-1.359258	0.219250
					CHANNELS 3 Zrotation Xrotation Yrotation
					JOINT RightForeArm
					{
						OFFSET	-4.390314	-31.537147	0.202818
						CHANNELS 3 Zrotation Xrotation Yrotation
						JOINT RightHand
						{
							OFFSET	-3.168650	-24.865023	5.373370
							CHANNELS 3 Zrotation Xrotation Yrotation
							End Site
							{
								OFFSET	-1.457528	-10.806075	2.170267
							}
						}
					}
				}
			}
			JOINT Neck
			{
				OFFSET	0.000000	27.075639	0.680489
				CHANNELS 3 Zrotation Xrotation Yrotation
				JOINT Head
				{
					OFFSET	0.000000	12.391287	1.239129
					CHANNELS 3 Zrotation Xrotation Yrotation
					End Site
					{
						OFFSET	0.000000	13.818691	-0.105853
					}
				}
			}
		}
	}
}
MOTION
Frames:     10
Frame Time: 0.016667
0.000000	100.426330	0.000000	-1.163092	1.663468	-1.404154	0.815025	1.211279	-1.089508	-0.131906	-2.745031	2.801888	1.006588	0.318735	-2.996888	0.	0.	0.	1.315113	-1.832081	-4.199422	0.253800	-0.137890	1.516987	0.397846	0.268001	-2.637905	0.	0.	0.	0.324589	1.549487	-1.067845	2.231055	0.168246	-4.629519	-0.003712	-0.813969	0.881979	0.911606	-1.952440	-9.797558	-1.094336	0.102841	0.275889	5.087221	-0.347478	-16.990356	0.577378	0.136383	-4.332541	-0.982932	-5.117142	10.802418	0.587097	2.027453	6.250923	-1.111483	0.358045	11.624589	-2.981351	0.356277	4.938017	2.522751	1.307409	-6.741051	
0.000000	100.426330	0.000000	-1.163092	1.663468	-1.404154	0.815025	1.211279	-1.089508	-0.131906	-2.745031	2.801888	1.006588	0.318735	-2.996888	0.	0.	0.	1.317307	-1.831683	-4.192701	0.251626	-0.138478	1.510340	0.397846	0.268001	-2.637905	0.	0.	0.	0.324563	1.541360	-1.067046	2.230933	0.176335	-4.630632	-0.004691	-0.818981	0.887169	0.906497	-1.957429	-9.792542	-1.090109	0.113813	0.265589	5.087221	-0.347478	-16.990356	0.577378	0.136383	-4.332541	-0.982932	-5.117142	10.802418	0.587097	2.027453	6.250923	-1.111483	0.358045	11.624589	-2.981351	0.356277	4.938017	2.522751	1.307409	-6.741051	
0.000000	100.426330	0.000000	-1.163092	1.663468	-1.404154	0.815025	1.211279	-1.089508	-0.131906	-2.745031	2.801888	1.006588	0.318735	-2.996888	0.	0.	0.	1.321925	-1.830838	-4.178566	0.247051	-0.139718	1.496358	0.397846	0.268001	-2.637905	0.	0.	0.	0.324507	1.526736	-1.065581	2.230723	0.190890	-4.632664	-0.003727	-0.821427	0.889047	0.895208	-1.974288	-9.776157	-1.080405	0.122170	0.264759	5.081781	-0.337710	-17.003889	0.577378	0.136383	-4.332541	-0.982932	-5.117142	10.802418	0.588259	2.027249	6.245683	-1.112647	0.358273	11.629793	-2.981351	0.356277	4.938017	2.522751	1.307409	-6.741051	
0.000000	100.426330	0.000000	-1.163092	1.663468	-1.404154	0.815025	1.211279	-1.089508	-0.131906	-2.745031	2.801888	1.006588	0.318735	-2.996888	0.	0.	0.	1.326682	-1.829967	-4.164001	0.242337	-0.140995	1.481949	0.397846	0.268001	-2.637905	0.	0.	0.	0.324463	1.513391	-1.064265	2.230526	0.204173	-4.634498	-0.003727	-0.821427	0.889047	0.892819	-1.990856	-9.758896	-1.076475	0.122767	0.268880	5.067634	-0.328428	-17.007824	0.577378	0.136383	-4.332541	-0.982932	-5.117142	10.802418	0.592769	2.026453	6.225375	-1.117168	0.359163	11.649964	-2.981351	0.356277	4.938017	2.522751	1.307409	-6.741051	
0.000000	100.426330	0.000000	-1.163092	1.663468	-1.404154	0.815025	1.211279	-1.089508	-0.131906	-2.745031	2.801888	1.006588	0.318735	-2.996888	0.	0.	0.	1.331554	-1.829071	-4.149062	0.237509	-0.142304	1.467171	0.397846	0.268001	-2.637905	0.	0.	0.	0.324453	1.510145	-1.063958	2.230638	0.210551	-4.634757	-0.003637	-0.824577	0.888871	0.896518	-2.004405	-9.742103	-1.078345	0.120771	0.271688	5.058871	-0.317670	-17.019360	0.577471	0.133232	-4.332685	-0.982932	-5.117142	10.802418	0.597216	2.025654	6.205366	-1.121624	0.360049	11.669836	-2.981256	0.353140	4.937677	2.522751	1.307409	-6.741051	
-0.000708	100.425361	0.002071	-1.158978	1.663850	-1.395103	0.811117	1.210666	-1.098672	-0.131906	-2.745031	2.801888	1.006588	0.318735	-2.996888	0.	0.	0.	1.332511	-1.828790	-4.141830	0.232203	-0.143730	1.450958	0.397846	0.268001	-2.637905	0.	0.	0.	0.320593	1.509611	-1.073128	2.231332	0.224108	-4.634033	-0.003244	-0.838145	0.888145	0.889156	-2.016242	-9.726560	-1.067777	0.121245	0.269057	5.038872	-0.314044	-17.005276	0.577876	0.119657	-4.333273	-0.982932	-5.117142	10.802418	0.607658	2.021950	6.161028	-1.131878	0.363990	11.713893	-2.980844	0.339628	4.936247	2.522751	1.307409	-6.741051	
-0.001766	100.423927	0.005167	-1.152822	1.664420	-1.381561	0.805270	1.209752	-1.112385	-0.131906	-2.745031	2.801888	1.006588	0.318735	-2.996888	0.	0.	0.	1.332146	-1.828682	-4.136515	0.226050	-0.145398	1.432137	0.397846	0.268001	-2.637905	0.	0.	0.	0.314817	1.508814	-1.086850	2.232157	0.240392	-4.633175	-0.002763	-0.854442	0.887282	0.875265	-2.019862	-9.710938	-1.045980	0.116982	0.255868	5.019913	-0.309415	-16.989315	0.578371	0.103352	-4.333970	-0.982932	-5.117142	10.802418	0.619022	2.018266	6.112288	-1.143086	0.367907	11.762320	-2.980340	0.323398	4.934540	2.522751	1.307409	-6.741051	
-0.003442	100.421650	0.010089	-1.143049	1.665335	-1.360059	0.795985	1.208300	-1.134158	-0.131906	-2.745031	2.801888	1.006588	0.318735	-2.996888	0.	0.	0.	1.329446	-1.828909	-4.134567	0.218378	-0.147470	1.408682	0.397846	0.268001	-2.637905	0.	0.	0.	0.305647	1.507548	-1.108637	2.233622	0.269111	-4.631633	-0.001928	-0.883187	0.885734	0.865267	-2.022243	-9.694812	-1.032396	0.116359	0.240802	5.005577	-0.310152	-16.971479	0.579232	0.074593	-4.335227	-0.982932	-5.117142	10.802418	0.634382	2.013393	6.046318	-1.158258	0.373063	11.827868	-2.979465	0.294773	4.931500	2.518176	1.303964	-6.731222	
-0.003914	100.420884	0.011661	-1.139755	1.665651	-1.352803	0.792855	1.207805	-1.141505	-0.131733	-2.744987	2.805087	1.006431	0.318644	-3.000078	0.	0.	0.	1.332041	-1.828337	-4.123223	0.212316	-0.149112	1.390192	0.397846	0.268001	-2.637905	0.	0.	0.	0.302555	1.507116	-1.115989	2.234184	0.280216	-4.631054	-0.001600	-0.894300	0.885149	0.864467	-2.021665	-9.677441	-1.036935	0.115042	0.235342	5.001171	-0.315375	-16.964703	0.579569	0.063474	-4.335699	-0.982932	-5.117142	10.802418	0.636906	2.012937	6.035004	-1.159067	0.372420	11.832473	-2.979123	0.283705	4.930339	2.513866	1.300491	-6.721374	
-0.005112	100.418627	0.016102	-1.130052	1.666566	-1.331444	0.783635	1.206366	-1.163132	-0.130881	-2.744758	2.821028	1.005657	0.318177	-3.015975	0.	0.	0.	1.329659	-1.828483	-4.120426	0.204403	-0.151266	1.366039	0.397846	0.268001	-2.637905	0.	0.	0.	0.293449	1.505862	-1.137631	2.236054	0.317889	-4.625758	0.000541	-0.929894	0.882091	0.853868	-2.021753	-9.620857	-1.058000	0.108655	0.244107	5.024155	-0.318507	-17.018526	0.582455	0.039928	-4.330935	-0.984450	-5.131270	10.792447	0.648358	2.010847	5.983654	-1.160148	0.367836	11.843459	-2.977912	0.246329	4.923084	2.487999	1.280633	-6.664861	
